<mxfile host="app.diagrams.net" agent="Mozilla/5.0 (Windows NT 10.0; Win64; x64) AppleWebKit/537.36 (KHTML, like Gecko) Chrome/136.0.0.0 Safari/537.36" version="27.0.6">
  <diagram id="6a731a19-8d31-9384-78a2-239565b7b9f0" name="Page-1">
    <mxGraphModel dx="1965" dy="1063" grid="1" gridSize="10" guides="1" tooltips="1" connect="1" arrows="1" fold="1" page="1" pageScale="1" pageWidth="1169" pageHeight="827" background="#ffffff" math="0" shadow="0">
      <root>
        <mxCell id="0" />
        <mxCell id="1" parent="0" />
        <mxCell id="2" value="start" style="shape=mxgraph.flowchart.terminator;strokeWidth=2;gradientColor=none;gradientDirection=north;fontStyle=0;html=1;" parent="1" vertex="1">
          <mxGeometry x="262.5" y="150" width="120" height="30" as="geometry" />
        </mxCell>
        <mxCell id="6" value="rst_n?" style="shape=mxgraph.flowchart.decision;strokeWidth=2;gradientColor=none;gradientDirection=north;fontStyle=0;html=1;" parent="1" vertex="1">
          <mxGeometry x="272" y="390" width="98" height="57" as="geometry" />
        </mxCell>
        <mxCell id="10" value="" style="edgeStyle=elbowEdgeStyle;elbow=horizontal;exitX=1;exitY=0.5;exitPerimeter=0;fontStyle=1;strokeColor=#003366;strokeWidth=1;html=1;" parent="1" source="6" edge="1">
          <mxGeometry x="381" y="28.5" width="100" height="100" as="geometry">
            <mxPoint x="751" y="447" as="sourcePoint" />
            <mxPoint x="621" y="418" as="targetPoint" />
            <Array as="points">
              <mxPoint x="546" y="400" />
            </Array>
          </mxGeometry>
        </mxCell>
        <mxCell id="11" value="0" style="text;fontStyle=0;html=1;strokeColor=none;gradientColor=none;fillColor=none;strokeWidth=2;" parent="1" vertex="1">
          <mxGeometry x="371" y="390" width="40" height="26" as="geometry" />
        </mxCell>
        <mxCell id="12" value="" style="edgeStyle=elbowEdgeStyle;elbow=horizontal;fontColor=#001933;fontStyle=1;strokeColor=#003366;strokeWidth=1;html=1;" parent="1" source="6" edge="1">
          <mxGeometry width="100" height="100" as="geometry">
            <mxPoint x="1" y="100" as="sourcePoint" />
            <mxPoint x="321" y="510" as="targetPoint" />
          </mxGeometry>
        </mxCell>
        <mxCell id="14" value="1" style="text;fontStyle=0;html=1;strokeColor=none;gradientColor=none;fillColor=none;strokeWidth=2;align=center;" parent="1" vertex="1">
          <mxGeometry x="321" y="447" width="40" height="26" as="geometry" />
        </mxCell>
        <mxCell id="40" value="end" style="shape=mxgraph.flowchart.terminator;strokeWidth=2;gradientColor=none;gradientDirection=north;fontStyle=0;html=1;" parent="1" vertex="1">
          <mxGeometry x="261" y="1260" width="120" height="20" as="geometry" />
        </mxCell>
        <mxCell id="45" value="" style="edgeStyle=elbowEdgeStyle;elbow=horizontal;exitX=1;exitY=0.5;exitPerimeter=0;entryX=0.905;entryY=0.5;entryPerimeter=0;fontStyle=1;strokeColor=#003366;strokeWidth=1;html=1;" parent="1" target="34" edge="1">
          <mxGeometry width="100" height="100" as="geometry">
            <mxPoint x="380.5" y="1119.25" as="sourcePoint" />
            <mxPoint x="100" as="targetPoint" />
            <Array as="points">
              <mxPoint x="950" y="1320" />
            </Array>
          </mxGeometry>
        </mxCell>
        <mxCell id="iADLRXXzgV8zZiH1wRhg-55" value="result = 0&amp;nbsp;&lt;div&gt;carry = 0&lt;/div&gt;" style="rounded=1;whiteSpace=wrap;html=1;" vertex="1" parent="1">
          <mxGeometry x="596" y="390" width="120" height="60" as="geometry" />
        </mxCell>
        <mxCell id="iADLRXXzgV8zZiH1wRhg-61" value="" style="endArrow=none;html=1;rounded=0;" edge="1" parent="1">
          <mxGeometry width="50" height="50" relative="1" as="geometry">
            <mxPoint x="641" y="390" as="sourcePoint" />
            <mxPoint x="641" y="330" as="targetPoint" />
          </mxGeometry>
        </mxCell>
        <mxCell id="iADLRXXzgV8zZiH1wRhg-62" value="" style="endArrow=classic;html=1;rounded=0;" edge="1" parent="1">
          <mxGeometry width="50" height="50" relative="1" as="geometry">
            <mxPoint x="640" y="330" as="sourcePoint" />
            <mxPoint x="381" y="329.52" as="targetPoint" />
          </mxGeometry>
        </mxCell>
        <mxCell id="iADLRXXzgV8zZiH1wRhg-63" value="do operation" style="rounded=1;whiteSpace=wrap;html=1;" vertex="1" parent="1">
          <mxGeometry x="261" y="510" width="120" height="60" as="geometry" />
        </mxCell>
        <mxCell id="iADLRXXzgV8zZiH1wRhg-74" value="" style="endArrow=none;dashed=1;html=1;dashPattern=1 3;strokeWidth=2;rounded=0;" edge="1" parent="1">
          <mxGeometry width="50" height="50" relative="1" as="geometry">
            <mxPoint x="120" y="280" as="sourcePoint" />
            <mxPoint x="840" y="280" as="targetPoint" />
          </mxGeometry>
        </mxCell>
        <mxCell id="iADLRXXzgV8zZiH1wRhg-75" value="" style="endArrow=none;dashed=1;html=1;dashPattern=1 3;strokeWidth=2;rounded=0;" edge="1" parent="1">
          <mxGeometry width="50" height="50" relative="1" as="geometry">
            <mxPoint x="120" y="610" as="sourcePoint" />
            <mxPoint x="120" y="280" as="targetPoint" />
          </mxGeometry>
        </mxCell>
        <mxCell id="iADLRXXzgV8zZiH1wRhg-76" value="" style="endArrow=none;dashed=1;html=1;dashPattern=1 3;strokeWidth=2;rounded=0;" edge="1" parent="1">
          <mxGeometry width="50" height="50" relative="1" as="geometry">
            <mxPoint x="120" y="610" as="sourcePoint" />
            <mxPoint x="840" y="610" as="targetPoint" />
          </mxGeometry>
        </mxCell>
        <mxCell id="iADLRXXzgV8zZiH1wRhg-77" value="" style="endArrow=none;dashed=1;html=1;dashPattern=1 3;strokeWidth=2;rounded=0;" edge="1" parent="1">
          <mxGeometry width="50" height="50" relative="1" as="geometry">
            <mxPoint x="840" y="610" as="sourcePoint" />
            <mxPoint x="840" y="280" as="targetPoint" />
          </mxGeometry>
        </mxCell>
        <mxCell id="iADLRXXzgV8zZiH1wRhg-78" value="RTL Description" style="text;html=1;align=center;verticalAlign=middle;whiteSpace=wrap;rounded=0;" vertex="1" parent="1">
          <mxGeometry x="730" y="280" width="110" height="30" as="geometry" />
        </mxCell>
        <mxCell id="iADLRXXzgV8zZiH1wRhg-79" value="testbench coding" style="rounded=1;whiteSpace=wrap;html=1;" vertex="1" parent="1">
          <mxGeometry x="262.5" y="640" width="120" height="60" as="geometry" />
        </mxCell>
        <mxCell id="iADLRXXzgV8zZiH1wRhg-81" value="" style="endArrow=classic;html=1;rounded=0;exitX=0.5;exitY=1;exitDx=0;exitDy=0;" edge="1" parent="1" source="iADLRXXzgV8zZiH1wRhg-63">
          <mxGeometry width="50" height="50" relative="1" as="geometry">
            <mxPoint x="290" y="620" as="sourcePoint" />
            <mxPoint x="321" y="640" as="targetPoint" />
          </mxGeometry>
        </mxCell>
        <mxCell id="iADLRXXzgV8zZiH1wRhg-82" value="testbench&lt;br&gt;equivalence&amp;nbsp; RTL?" style="rhombus;whiteSpace=wrap;html=1;" vertex="1" parent="1">
          <mxGeometry x="250" y="790" width="142" height="100" as="geometry" />
        </mxCell>
        <mxCell id="iADLRXXzgV8zZiH1wRhg-84" value="" style="endArrow=none;html=1;rounded=0;" edge="1" parent="1">
          <mxGeometry x="-0.9548" y="10" width="50" height="50" relative="1" as="geometry">
            <mxPoint x="392" y="840" as="sourcePoint" />
            <mxPoint x="900" y="840" as="targetPoint" />
            <mxPoint as="offset" />
          </mxGeometry>
        </mxCell>
        <mxCell id="iADLRXXzgV8zZiH1wRhg-86" value="N" style="edgeLabel;html=1;align=center;verticalAlign=middle;resizable=0;points=[];" vertex="1" connectable="0" parent="iADLRXXzgV8zZiH1wRhg-84">
          <mxGeometry x="-0.9745" y="13" relative="1" as="geometry">
            <mxPoint x="3" as="offset" />
          </mxGeometry>
        </mxCell>
        <mxCell id="iADLRXXzgV8zZiH1wRhg-85" value="" style="endArrow=classic;html=1;rounded=0;entryX=0.5;entryY=0;entryDx=0;entryDy=0;exitX=0.5;exitY=1;exitDx=0;exitDy=0;" edge="1" parent="1" source="iADLRXXzgV8zZiH1wRhg-79" target="iADLRXXzgV8zZiH1wRhg-82">
          <mxGeometry width="50" height="50" relative="1" as="geometry">
            <mxPoint x="290" y="750" as="sourcePoint" />
            <mxPoint x="340" y="700" as="targetPoint" />
          </mxGeometry>
        </mxCell>
        <mxCell id="iADLRXXzgV8zZiH1wRhg-87" value="" style="endArrow=none;html=1;rounded=0;" edge="1" parent="1">
          <mxGeometry width="50" height="50" relative="1" as="geometry">
            <mxPoint x="900" y="840" as="sourcePoint" />
            <mxPoint x="900" y="210" as="targetPoint" />
          </mxGeometry>
        </mxCell>
        <mxCell id="iADLRXXzgV8zZiH1wRhg-88" value="RTL coding" style="rounded=1;whiteSpace=wrap;html=1;" vertex="1" parent="1">
          <mxGeometry x="261" y="300" width="120" height="60" as="geometry" />
        </mxCell>
        <mxCell id="iADLRXXzgV8zZiH1wRhg-89" value="" style="endArrow=classic;html=1;rounded=0;entryX=0.5;entryY=0;entryDx=0;entryDy=0;entryPerimeter=0;exitX=0.5;exitY=1;exitDx=0;exitDy=0;" edge="1" parent="1" source="iADLRXXzgV8zZiH1wRhg-88" target="6">
          <mxGeometry width="50" height="50" relative="1" as="geometry">
            <mxPoint x="220" y="360" as="sourcePoint" />
            <mxPoint x="347.5" y="350" as="targetPoint" />
          </mxGeometry>
        </mxCell>
        <mxCell id="iADLRXXzgV8zZiH1wRhg-96" value="" style="endArrow=classic;html=1;rounded=0;entryX=0.5;entryY=0;entryDx=0;entryDy=0;exitX=0.5;exitY=1;exitDx=0;exitDy=0;exitPerimeter=0;" edge="1" parent="1" source="2" target="iADLRXXzgV8zZiH1wRhg-88">
          <mxGeometry width="50" height="50" relative="1" as="geometry">
            <mxPoint x="290" y="240" as="sourcePoint" />
            <mxPoint x="340" y="190" as="targetPoint" />
          </mxGeometry>
        </mxCell>
        <mxCell id="iADLRXXzgV8zZiH1wRhg-97" value="" style="endArrow=none;html=1;rounded=0;" edge="1" parent="1">
          <mxGeometry width="50" height="50" relative="1" as="geometry">
            <mxPoint x="360" y="210" as="sourcePoint" />
            <mxPoint x="900" y="210" as="targetPoint" />
          </mxGeometry>
        </mxCell>
        <mxCell id="iADLRXXzgV8zZiH1wRhg-98" value="" style="endArrow=classic;html=1;rounded=0;entryX=0.822;entryY=0.067;entryDx=0;entryDy=0;entryPerimeter=0;" edge="1" parent="1" target="iADLRXXzgV8zZiH1wRhg-88">
          <mxGeometry width="50" height="50" relative="1" as="geometry">
            <mxPoint x="360" y="210" as="sourcePoint" />
            <mxPoint x="360" y="300" as="targetPoint" />
          </mxGeometry>
        </mxCell>
        <mxCell id="iADLRXXzgV8zZiH1wRhg-99" value="" style="endArrow=none;dashed=1;html=1;dashPattern=1 3;strokeWidth=2;rounded=0;" edge="1" parent="1">
          <mxGeometry width="50" height="50" relative="1" as="geometry">
            <mxPoint x="123" y="940" as="sourcePoint" />
            <mxPoint x="123" y="610" as="targetPoint" />
            <Array as="points">
              <mxPoint x="123" y="730" />
            </Array>
          </mxGeometry>
        </mxCell>
        <mxCell id="iADLRXXzgV8zZiH1wRhg-101" value="" style="endArrow=none;dashed=1;html=1;dashPattern=1 3;strokeWidth=2;rounded=0;" edge="1" parent="1">
          <mxGeometry width="50" height="50" relative="1" as="geometry">
            <mxPoint x="840" y="940" as="sourcePoint" />
            <mxPoint x="840" y="610" as="targetPoint" />
            <Array as="points">
              <mxPoint x="840" y="740" />
            </Array>
          </mxGeometry>
        </mxCell>
        <mxCell id="iADLRXXzgV8zZiH1wRhg-102" value="" style="endArrow=none;dashed=1;html=1;dashPattern=1 3;strokeWidth=2;rounded=0;" edge="1" parent="1">
          <mxGeometry width="50" height="50" relative="1" as="geometry">
            <mxPoint x="120" y="940" as="sourcePoint" />
            <mxPoint x="840" y="940" as="targetPoint" />
          </mxGeometry>
        </mxCell>
        <mxCell id="iADLRXXzgV8zZiH1wRhg-103" value="Functional Verification" style="text;html=1;align=center;verticalAlign=middle;whiteSpace=wrap;rounded=0;" vertex="1" parent="1">
          <mxGeometry x="691" y="620" width="125" height="30" as="geometry" />
        </mxCell>
        <mxCell id="iADLRXXzgV8zZiH1wRhg-107" value="Logic synthesis" style="rounded=1;whiteSpace=wrap;html=1;" vertex="1" parent="1">
          <mxGeometry x="262.5" y="1000" width="120" height="60" as="geometry" />
        </mxCell>
        <mxCell id="iADLRXXzgV8zZiH1wRhg-108" value="" style="endArrow=classic;html=1;rounded=0;exitX=0.5;exitY=1;exitDx=0;exitDy=0;" edge="1" parent="1" source="iADLRXXzgV8zZiH1wRhg-82">
          <mxGeometry width="50" height="50" relative="1" as="geometry">
            <mxPoint x="297.5" y="960" as="sourcePoint" />
            <mxPoint x="320" y="1000" as="targetPoint" />
          </mxGeometry>
        </mxCell>
        <mxCell id="iADLRXXzgV8zZiH1wRhg-114" value="N" style="edgeStyle=orthogonalEdgeStyle;rounded=0;orthogonalLoop=1;jettySize=auto;html=1;exitX=0.965;exitY=0.5;exitDx=0;exitDy=0;exitPerimeter=0;" edge="1" parent="1" source="iADLRXXzgV8zZiH1wRhg-111">
          <mxGeometry x="-0.9278" y="5" relative="1" as="geometry">
            <mxPoint x="550" y="1020" as="targetPoint" />
            <mxPoint as="offset" />
          </mxGeometry>
        </mxCell>
        <mxCell id="iADLRXXzgV8zZiH1wRhg-111" value="Logic equivalence?" style="rhombus;whiteSpace=wrap;html=1;" vertex="1" parent="1">
          <mxGeometry x="236" y="1100" width="170" height="90" as="geometry" />
        </mxCell>
        <mxCell id="iADLRXXzgV8zZiH1wRhg-115" value="" style="endArrow=classic;html=1;rounded=0;entryX=1;entryY=0.5;entryDx=0;entryDy=0;" edge="1" parent="1" target="iADLRXXzgV8zZiH1wRhg-107">
          <mxGeometry width="50" height="50" relative="1" as="geometry">
            <mxPoint x="550" y="1030" as="sourcePoint" />
            <mxPoint x="490" y="1010" as="targetPoint" />
          </mxGeometry>
        </mxCell>
        <mxCell id="iADLRXXzgV8zZiH1wRhg-116" value="" style="endArrow=classic;html=1;rounded=0;exitX=0.5;exitY=1;exitDx=0;exitDy=0;" edge="1" parent="1">
          <mxGeometry width="50" height="50" relative="1" as="geometry">
            <mxPoint x="321" y="1060" as="sourcePoint" />
            <mxPoint x="320.2867672266026" y="1100.4165238258486" as="targetPoint" />
          </mxGeometry>
        </mxCell>
        <mxCell id="iADLRXXzgV8zZiH1wRhg-117" value="" style="endArrow=classic;html=1;rounded=0;entryX=0.5;entryY=0;entryDx=0;entryDy=0;entryPerimeter=0;exitX=0.5;exitY=1;exitDx=0;exitDy=0;" edge="1" parent="1" source="iADLRXXzgV8zZiH1wRhg-111" target="40">
          <mxGeometry width="50" height="50" relative="1" as="geometry">
            <mxPoint x="297.5" y="1240" as="sourcePoint" />
            <mxPoint x="347.5" y="1190" as="targetPoint" />
          </mxGeometry>
        </mxCell>
      </root>
    </mxGraphModel>
  </diagram>
</mxfile>
